<?xml version="1.0" encoding="utf-8"?>
<!-- Generator: Adobe Illustrator 28.0.0, SVG Export Plug-In . SVG Version: 6.00 Build 0)  -->
<svg version="1.1" id="Capa_1" xmlns="http://www.w3.org/2000/svg" xmlns:xlink="http://www.w3.org/1999/xlink" x="0px" y="0px"
	 viewBox="0 0 2502.3 972.3" style="enable-background:new 0 0 2502.3 972.3;" xml:space="preserve">
<style type="text/css">
	.st0{fill:#FDFDFD;}
	.st1{fill:#FCFCFC;}
	.st2{fill:#FBFBFB;}
	.st3{fill:#F8F8F8;}
	.st4{fill:#666666;}
	.st5{fill:#02D0B5;}
	.st6{fill:#FEFEFE;}
	.st7{fill:#676767;}
	.st8{fill:#C8C8C8;}
	.st9{fill:#CACACA;}
	.st10{fill:#605F60;}
	.st11{fill:#1C1B1C;}
	.st12{fill:#1E1D1E;}
	.st13{fill:#1D1C1D;}
	.st14{fill:#201F20;}
	.st15{fill:#323232;}
	.st16{fill:#353435;}
	.st17{fill:#323132;}
	.st18{fill:#404041;}
	.st19{fill:#FFFFFF;}
</style>
<g>
	<path class="st0" d="M2476.8,563c0,19.8-1.1,39.8,0.3,59.5c1.2,16.5-9,14.7-18.7,13.8c-9.7-0.9-24,6.4-23.6-14
		c0.7-38.3,0.8-76.6,0-114.8c-0.7-34.1-19.4-54-49.3-54.4c-31.6-0.5-52.5,19.7-53.2,53.1c-0.7,37.6-1,75.2,0.2,112.7
		c0.5,16-5.5,19.1-19.4,17.9c-11.8-1-23.8,2.7-23-17.3c1.5-36.8,0.6-73.7,0.3-110.6c-0.2-23.6-8-42.7-32.1-52.2
		c-36.1-14.3-69.8,9.3-70.6,50.8c-0.7,37.6-1,75.2,0.3,112.7c0.5,15.7-6.3,17.6-18.6,16.4c-11.1-1-24.8,4.5-23.7-16.3
		c2.5-44.5-3.1-89.2,3.1-133.6c4.9-34.8,23.7-58.1,58-67.9c34.7-10,65.7-4,92,21.7c6.6,6.5,10,18.7,23,3.5
		c27.6-32.2,63.6-37.1,102.3-22.4c37.4,14.2,50.1,45.2,52.4,81.9C2477.8,523.2,2476.8,543.1,2476.8,563z"/>
	<path class="st0" d="M1326.8,665.8c21.3-2.8,39-3.5,55,16.2c16.5,20.3,61.5,21.4,85.6,7.5c24-13.9,32.8-40.8,24.7-81.2
		c-22.7,27.9-51.1,38.7-84.9,33c-52.4-8.9-82.2-44.5-83.9-101.1c-1-34.7,0.7-69.5-0.5-104.3c-0.7-20.9,13.1-15,24.1-16.2
		c13.1-1.4,18.9,2.1,18.4,17.1c-1.2,32.6-0.6,65.2-0.3,97.9c0.3,42.6,24.6,68.4,64,68.7c39.7,0.3,65.3-25,66.4-66.9
		c0.8-33.3,1.1-66.7-0.2-100c-0.8-20.4,12.2-15.8,23.7-16.8c12.9-1.1,18.9,1.8,18.8,17c-0.8,66,0.2,131.9-0.5,197.9
		c-0.6,53.2-30.3,87.9-80.4,96.5c-60.4,10.4-110.4-12-128-57.3C1327.8,671.2,1327.4,668.5,1326.8,665.8z"/>
	<path class="st0" d="M1283.6,443.7c-17.8,12.4-42.2,9.4-51.8-6.3c-29.5-48.2-89.1-64.9-143.7-40.2c-46.1,20.8-67.8,78.2-50.7,134.6
		c14,46.4,65.9,76.3,118.4,67.9c32.3-5.2,58.4-20.3,75.4-49.1c6.7-11.4,36-19.4,47.8-13.5c8.4,4.3,2.5,10,0.9,14.3
		c-11.8,31.1-33.4,53.8-61.6,70.7c-61.8,37.2-156.4,21.5-199.3-33.3c-47.6-60.8-41.5-152.4,13.6-205.3
		c60.6-58.1,174-49.9,226.3,16.4c5.7,7.2,10.9,14.9,16.3,22.3C1278.8,429.1,1279.9,436.9,1283.6,443.7z"/>
	<path class="st0" d="M1887.5,489c0-17.7,1.2-35.6-0.3-53.2c-1.7-18.6,9.8-16.1,21.3-16.3c12.3-0.3,21.9-0.6,21.2,17.1
		c-1.3,33.3-0.9,66.7-0.2,100c0.5,25.3,7.8,48.1,33,59.5c24.8,11.3,49.6,10.6,72.7-5.3c18.8-13,23.9-32.7,24.3-53.8
		c0.7-33.3,0.9-66.7-0.2-100c-0.5-14.6,4.6-19.1,18.2-17.5c10.9,1.3,25.4-4.9,24.2,16.1c-2.2,40.3,2.7,80.7-2.8,120.9
		c-8.7,64.7-58.2,89.8-118.3,85.4c-56.9-4.2-92.4-44.8-93.1-104C1887.3,521.7,1887.5,505.3,1887.5,489z"/>
	<path class="st1" d="M1595.5,480.1c0-46.1,0.9-92.2-0.4-138.2c-0.6-20.4,12-16,23.5-16.7c12.1-0.8,19.2,0.4,19.1,16.3
		c-0.8,92.9-0.8,185.8,0,278.6c0.1,15.6-6.2,17.7-18.6,16.5c-11-1.1-24.5,4.9-24-16.1C1596.3,573.7,1595.5,526.9,1595.5,480.1z"/>
	<path class="st2" d="M1737.4,482.1c0,46-0.9,92.1,0.5,138.1c0.6,18.6-9.7,16.5-21.3,16.5c-11.7,0-21.6,1.8-21.5-16.5
		c0.9-92.8,0.9-185.6,0.1-278.4c-0.2-20.4,12.3-15.7,23.7-16.6c12.7-1,19.2,1.4,18.8,16.7C1736.8,388.5,1737.4,435.3,1737.4,482.1z"
		/>
	<path class="st0" d="M1793,529.1c0-31.2,0.9-62.3-0.4-93.4c-0.7-16.6,8.1-16.6,19.6-16c10.8,0.6,22.9-3.5,22.6,15.6
		c-0.8,62.3-0.8,124.6,0,186.9c0.2,20.3-13.6,13.4-23.3,14.2c-9.6,0.7-19.6,2.9-18.9-13.8C1794,591.4,1793,560.2,1793,529.1z"/>
	<path class="st3" d="M1784.7,358.3c-0.5-14.8,12.4-28.3,27.9-29.2c14.8-0.9,29.4,12.1,30.1,26.8c0.7,15.1-13.9,30.6-29,30.8
		C1799.4,386.8,1785.1,372.9,1784.7,358.3z"/>
	<path class="st4" d="M1275.1,422.3"/>
	<path class="st5" d="M867,487.9c0-65.3,0-130.6,0-195.8c0-37.2-16.5-65.2-48.4-83.8C707.9,143.7,597,79.3,486,15.3
		c-33.1-19.1-67.4-21-101.2-1.6C274.4,77.3,164.2,141.5,53.7,204.9C17,226,0,257,0.1,299.1C0.6,423.3,0.7,547.5,0,671.7
		c-0.3,44,16.9,76,55.6,97.5c41.5,23,82.3,47.4,123.4,71c70,40.2,139.8,80.6,210.2,120c31.6,17.7,63.9,15.3,95.1-2.6
		C596.2,893.3,708,829.1,819.5,764.4c31.4-18.2,47-46.9,47.3-82.8C867.5,617,867,552.4,867,487.9z M796.5,737.4
		C686.2,801.1,576,865.1,465.7,928.9c-21.4,12.4-43.4,12.1-64.7-0.2C291.3,865.3,181.9,801.4,72,738.4C45.2,723,32.8,701,32.8,670.7
		c0.1-124.1,0-248.3,0-372.4c0-27.9,11.9-49,36.2-62.9c109.1-62.8,218.3-125.5,327.1-188.7c25-14.6,48-15.6,73.7-0.5
		c100,58.8,202,114.3,300.8,175.2c8.4,5.2,17.5,9,26.3,13.5c25.4,12.9,36.5,34,36.5,62c-0.2,63.8-0.1,127.7-0.1,191.5
		c0,61.7-0.7,123.4,0.3,185.1C834.2,703.1,821.4,723.1,796.5,737.4z"/>
	<path class="st6" d="M452.9,618.3c-23.5-12.9-34.4-9.6-44.8,13.5c-3.5,7.7-6.8,15.5-10.3,23.2c-8.1,17.6-9.2,32.5,4.5,50.2
		c21.5,27.8,16.1,63.1-8.4,86.6c-23,22.1-60.3,25-85.7,6.6c-26.5-19.2-35.9-54.6-20.9-85.3c10.2-20.8,28.2-34.2,51.4-36.6
		c17.5-1.8,27.4-9.4,31.6-25.7c0.5-2,1.2-4.2,2.3-5.9c17.1-26.9,19.5-51.8-9.4-72.7c-12.1-8.5-23-3.3-33.8,3
		c-9.1,4.5-11.8,13.4-15.6,21.8c-11.7,25.6-36.1,34.5-61.4,22.8c-20.8-9.6-30.4-37-20.5-58.5c10.4-22.5,40.1-32.5,63.2-19.5
		c12.7,7.2,23.6,9.4,37.7,4.1c11.9-4.5,14.1-12.2,17.6-22.9c11.2-34.5-2-56.6-31.1-73.8c-13.2-7.8-24.6-18.8-36.7-28.4
		c-7.5-5.9-15.3-10.3-25.3-6.4c-17.2,10-34.3,6.9-51.4-0.4c-41.8-20-38.9-76.1-9.1-97.5c19-13.6,39.6-14.7,60.4-5.4
		c20.8,9.3,32.8,26.7,30.9,48.9c-2.1,24.1,8.6,38.4,26.4,51.2c17.2,12.4,33.5,25.9,50.1,39c6.6,5.2,13.5,8.3,21.3,3.4
		c8.6-5.4,6.6-13.7,4.1-21c-15.8-46.9-31.8-93.6-48.1-140.3c-4.1-11.7-12.9-17.4-25.2-19.9c-32.9-6.6-54.3-29.2-55.8-57.4
		c-1.9-36,14-62.6,43.2-72.5c30-10.1,63,1.3,80.3,27.8c16.4,25.2,13.2,58.9-9.6,84c-9.2,10.2-10.9,19.5-6.3,32.4
		c15.9,44.6,30.9,89.5,45.9,134.4c3.8,11.3,9.6,17.9,22.5,18.4c13.2,0.5,21.7-4.4,26.5-16.4c12.7-31.5,24.9-63.2,38.5-94.3
		c5.8-13.4-1-23.2-5.7-34c-9-20.6-2.4-37.5,12.9-51.6c13.7-12.6,36-12.3,53.4-2.1c16.7,9.9,19.3,25,18.1,42
		c-1.2,16.1-8.2,29.9-24,34.3c-20.2,5.6-30,18.8-36.6,37.2c-9.4,25.9-20.2,51.2-30.3,76.9c-6.8,17.4,3,38.9,21.7,47.9
		c11.8,5.7,40.8-6.7,46.5-21c7.6-19.3,18.9-32.2,41.6-33.1c21.2-0.9,35.5,8,43.7,26.7c8.5,19.4,3,36.1-12.4,49.5
		c-15.8,13.8-33.9,13.5-51.5,4.8c-10.4-5.2-18.6-9.5-31.6-5.8c-18.5,5.3-23.5,16.4-28.7,33.5c-8.8,29.1,1.1,46.5,24.9,60.7
		c9.6,5.8,18.1,13.6,26.6,21.1c16.4,14.4,31.7,23.1,56.8,16.5c35.1-9.1,65.5,16,67.3,49.2c2.1,38.1-21.5,64.4-57.2,63.4
		c-35.7-1-60.3-30.1-55.2-67.7c1.7-12.9-3.9-20.3-12.3-27.2c-19.1-15.6-38.3-31.2-58-46c-8.2-6.2-16.3-18.9-28.8-6.3
		c-7.2,7.2-2.6,30.2,7.7,38.1c3.9,3,8.7,4.7,13.2,6.9c17.1,8.6,25.2,22.7,23.2,41.5c-2,19.3-14.6,30.7-32.7,34.5
		c-17.7,3.8-31.7-3.8-41.3-19.1c-1.1-1.8-2.5-3.4-3.7-5.1c-5.7-11-3.1-21.6,1.5-32.1C464.3,648.2,460.8,633.3,452.9,618.3z"/>
	<path class="st7" d="M206.1,413.9c17.1,5.6,34.2,5.4,51.4,0.4C240.3,427.3,223.1,426.7,206.1,413.9z"/>
	<path class="st8" d="M452.9,618.3c11.9,14,14.3,28.2,0.9,42.8c-2.6-1.1-2.9-2.7-0.9-4.7C464.3,643.7,453.5,631,452.9,618.3z"/>
	<path class="st9" d="M329.6,575.2c10.5-9.7,21.1-18.1,33.8-3C351.5,566.7,340.9,574.4,329.6,575.2z"/>
	<path class="st10" d="M452.9,656.4c0.3,1.6,0.6,3.1,0.9,4.7c-6.2,10.5-5.1,22-4.2,33.4C440,680.8,443.1,668.3,452.9,656.4z"/>
	<path class="st11" d="M435.6,467.1c32.2-0.2,58.3,25,59.1,57c0.8,31.9-26.6,59.6-59.2,59.7c-30.1,0.1-59.4-28.2-60-57.8
		C374.7,494.4,402.4,467.3,435.6,467.1z"/>
	<path class="st12" d="M366.8,208.7c-0.4,20.5-19.4,38.9-40,38.8c-20,0-41.2-21.8-40.5-41.5c0.8-22.6,19.6-40.1,41.9-39.1
		C351.5,167.9,367.4,185.1,366.8,208.7z"/>
	<path class="st13" d="M308.4,743.1c0.1-21.2,17.6-39.4,38.2-39.8c23.1-0.4,43,18.9,42.1,41.1c-0.7,19.5-20.8,38.9-40.6,39.4
		C326.4,784.4,308.3,765.8,308.4,743.1z"/>
	<path class="st14" d="M262.2,362.1c0.2,16-13,29.5-29.3,30c-17.7,0.5-30.9-12.3-30.8-30c0.1-15.5,14.2-30.8,28.7-31.1
		C246.4,330.7,262,346.1,262.2,362.1z"/>
	<path class="st14" d="M639.7,717.3c-16.4,0.3-30.5-12.4-31.1-28c-0.6-16.4,13.9-32.5,29.3-32.5c15.2,0,32.2,16.5,32,31.2
		C669.6,703.5,655.7,717,639.7,717.3z"/>
	<path class="st15" d="M272.4,561.6c11.6,2.2,18.6,8.2,18.2,18.8c-0.4,10.6-8.2,16.8-18.3,17.1c-11,0.3-16.9-7.4-16.7-17.9
		C255.8,568.7,264.7,564.8,272.4,561.6z"/>
	<path class="st16" d="M620.2,468.6c-1.8,10.2-8.5,16.9-18,17.4c-10.2,0.6-17.4-6.9-17.8-16.8c-0.5-11.4,8.1-18.6,18.4-18.5
		C612.3,450.8,618.7,458.3,620.2,468.6z"/>
	<path class="st17" d="M554.7,279.6c-0.9,7.8-6,15.1-17,15.1c-10.4,0-17.8-5.6-17.6-16.9c0.2-9.7,5.7-16.3,15.8-16.5
		C546,261.2,554.1,265,554.7,279.6z"/>
	<path class="st18" d="M487.8,666.6c8.5,1.5,13.6,6.1,12.7,14.2c-0.9,7.9-6.7,12.2-14.6,11c-6.4-1-11.5-4.5-11-12.6
		C475.3,670.4,480.8,667.5,487.8,666.6z"/>
	<path class="st19" d="M1761.5,755.2v-53.8c0-4.3,3.5-7.8,7.8-7.8l0,0c4.3,0,7.8,3.5,7.8,7.8v31.3c4.6-7.2,12.4-11.2,21.7-11.2
		c15.8,0,32.3,11.3,32.4,33.5c0,19.2-15.2,34.6-34.4,34.9C1776,790.2,1761.5,776.5,1761.5,755.2z M1815.4,755.7
		c0-11.4-7.8-19.6-19.2-19.6c-11.4,0-19.1,8.2-19.1,19.6c0,11.4,7.6,19.6,19.1,19.6C1807.6,775.3,1815.4,767.2,1815.4,755.7z"/>
	<path class="st19" d="M1836.1,703.7c0.8-4.7,4.4-8.1,9.3-8.5c6.2-0.5,11.6,4.9,11.3,11.2c-0.3,5-3.5,8.7-8.2,9.5
		C1840.8,717.4,1834.8,711.4,1836.1,703.7z M1846.2,723.2L1846.2,723.2c4.3,0,7.8,3.5,7.8,7.8V781c0,4.3-3.5,7.8-7.8,7.8l0,0
		c-4.3,0-7.8-3.5-7.8-7.8v-49.9C1838.4,726.7,1841.9,723.2,1846.2,723.2z"/>
	<path class="st19" d="M1863,755.7c0-19.7,14.5-34.2,35-34.2c20.5,0,35,14.5,35,34.2c0,19.7-14.5,34.2-35,34.2
		C1877.5,789.9,1863,775.5,1863,755.7z M1917.1,755.7c0-11.4-7.6-19.6-19.1-19.6c-11.4,0-19.2,8.2-19.2,19.6
		c0,11.4,7.8,19.6,19.2,19.6C1909.4,775.3,1917.1,767.2,1917.1,755.7z"/>
	<path class="st19" d="M2025.7,694.8L2025.7,694.8c2.4,0,4.4,2,4.4,4.4v85.2c0,2.4-2,4.4-4.4,4.4l0,0c-2.4,0-4.4-2-4.4-4.4v-85.2
		C2021.3,696.8,2023.3,694.8,2025.7,694.8z"/>
	<path class="st19" d="M2122.9,750.2c0-19.3,11.3-28.7,26.3-28.7c10.5,0,19.2,5,23.4,14.6c4.1-9.6,12.8-14.6,23.4-14.6
		c15,0,26.3,9.3,26.3,28.7v34.3c0,2.4-2,4.4-4.4,4.4h0c-2.4,0-4.4-2-4.4-4.4v-34.3c0-13.8-7.6-20.5-18.1-20.5s-18.3,7-18.3,20.5
		v34.3c0,2.4-2,4.4-4.4,4.4h0c-2.4,0-4.4-2-4.4-4.4v-34.3c0-13.5-7.9-20.5-18.4-20.5c-10.5,0-18.2,6.7-18.2,20.5v34.3
		c0,2.4-2,4.4-4.4,4.4l0,0c-2.4,0-4.4-2-4.4-4.4V750.2z"/>
	<path class="st19" d="M2232.6,755.7c0-19.7,14.5-34.2,35-34.2c18.4,0,31.7,12.3,34.3,30.6c0.5,3.4-2.2,6.5-5.7,6.5h-13.9h-40.6
		c1.2,13.5,11.3,23.1,25.9,23.1c9.4,0,16.8-3.5,21.2-9.9c0.8-1.1,1.9-1.8,3.3-1.8h0.4c3.4,0,5.3,3.9,3.3,6.7
		c-6.1,8.1-16.1,13.2-28.2,13.2C2247,789.9,2232.6,775.5,2232.6,755.7z M2293.1,750.7c-2.1-13.2-12.4-21-25.5-21
		c-13.5,0-23.7,8.3-25.6,21H2293.1z"/>
	<path class="st19" d="M2042.9,755.7c0-19.7,14.5-34.2,35-34.2c18.4,0,31.7,12.3,34.3,30.6c0.5,3.4-2.2,6.5-5.7,6.5h-13.9H2052
		c1.2,13.5,11.3,23.1,25.9,23.1c9.4,0,16.8-3.5,21.2-9.9c0.8-1.1,1.9-1.8,3.3-1.8h0.4c3.4,0,5.3,3.9,3.3,6.7
		c-6.1,8.1-16.1,13.2-28.2,13.2C2057.4,789.9,2042.9,775.5,2042.9,755.7z M2103.4,750.7c-2.1-13.2-12.4-21-25.5-21
		c-13.5,0-23.7,8.3-25.6,21H2103.4z"/>
	<path class="st19" d="M1941.3,755.7c0-19.7,14.5-34.2,35-34.2c18.4,0,31.7,12.3,34.3,30.6c0.5,3.4-2.2,6.5-5.7,6.5H1991h-40.6
		c1.2,13.5,11.3,23.1,25.9,23.1c9.4,0,16.8-3.5,21.2-9.9c0.8-1.1,1.9-1.8,3.3-1.8h0.4c3.4,0,5.3,3.9,3.3,6.7
		c-6.1,8.1-16.1,13.2-28.2,13.2C1955.7,789.9,1941.3,775.5,1941.3,755.7z M2001.8,750.7c-2.1-13.2-12.4-21-25.5-21
		c-13.5,0-23.7,8.3-25.6,21H2001.8z"/>
	<path class="st19" d="M2312.5,754.3c0-21.6,12.9-32.8,32.1-32.8c19.2,0,32.1,11.2,32.1,32.8v30.2c0,2.4-2,4.4-4.4,4.4l0,0
		c-2.4,0-4.4-2-4.4-4.4v-30.2c0-16-9.2-24.6-23.3-24.6c-14.1,0-23.3,8.5-23.3,24.6v30.2c0,2.4-2,4.4-4.4,4.4l0,0
		c-2.4,0-4.4-2-4.4-4.4V754.3z"/>
	<path class="st19" d="M2389.6,764.3v-59.6c0-2.4,2-4.4,4.4-4.4l0,0c2.4,0,4.4,2,4.4,4.4v18.6h34.3c2.2,0,4,1.8,4,4l0,0
		c0,2.2-1.8,4-4,4h-34.3v33c0,11.8,6.6,17.5,16.7,17.5c10,0,16.7-5.5,16.7-17.5v0.2c0-2.4,1.9-4.3,4.3-4.3l0,0
		c2.4,0,4.3,1.9,4.3,4.3v-0.2c0,17.1-10.3,25.6-25.3,25.6C2400,789.9,2389.6,781.4,2389.6,764.3z"/>
	<path class="st19" d="M2449.2,769.9v-1.2c0-2.3,1.8-4.1,4.1-4.1h0.7c2.3,0,4.1,1.8,4.1,4.1v1.2c0.4,7,6.7,12,17.6,12
		c11.3,0,17.6-5.3,17.6-12.2c0-7.9-8.3-8.8-17.6-10c-11.7-1.4-25-3.3-25-17.6c0-12.2,9.6-20.5,24.9-20.5c12.5,0,21.1,5.7,23.9,13.9
		c0.9,2.8-1.3,5.6-4.2,5.6l0,0c-1.8,0-3.5-1.1-4-2.7c-1.7-5.1-7.3-8.7-15.8-8.7c-10,0-15.9,5-15.9,11.7c0,8,8.4,8.9,17.6,10.1
		c10.1,1.3,25.1,2.9,25.1,17.6c0,12.4-10.4,20.9-26.6,20.9C2459.7,789.9,2449.5,781.4,2449.2,769.9z"/>
	<g>
		<path class="st19" d="M1683.6,740.2c0.1-1.7,0.2-4.2,0.2-6.4v-29.9h4.4v15.5h0.1c1.6-2.8,4.4-4.5,8.4-4.5
			c6.1,0,10.5,5.1,10.4,12.6c0,8.8-5.6,13.2-11.1,13.2c-3.6,0-6.4-1.4-8.3-4.7h-0.2l-0.2,4.1H1683.6z M1688.3,730.3
			c0,0.6,0.1,1.1,0.2,1.6c0.9,3.1,3.5,5.3,6.7,5.3c4.7,0,7.5-3.8,7.5-9.5c0-5-2.6-9.2-7.4-9.2c-3.1,0-5.9,2.1-6.8,5.5
			c-0.1,0.5-0.3,1.1-0.3,1.8V730.3z"/>
		<path class="st19" d="M1714.2,715.5l5.4,14.6c0.6,1.6,1.2,3.6,1.6,5.1h0.1c0.5-1.5,1-3.4,1.6-5.2l4.9-14.5h4.8l-6.7,17.6
			c-3.2,8.5-5.4,12.8-8.5,15.5c-2.2,1.9-4.4,2.7-5.5,2.9l-1.1-3.8c1.1-0.4,2.6-1.1,3.9-2.2c1.2-1,2.8-2.7,3.8-5
			c0.2-0.5,0.4-0.8,0.4-1.1c0-0.3-0.1-0.6-0.3-1.2l-9.2-22.8H1714.2z"/>
	</g>
</g>
</svg>
